<svg width="91" height="47" viewBox="0 0 91 47" fill="none" xmlns="http://www.w3.org/2000/svg">
<path d="M0.501691 32.9088L2.82434 31.5152C4.45948 34.5253 6.34856 36.0304 8.49159 36.0304C9.40826 36.0304 10.2692 35.8198 11.0744 35.3986C11.8795 34.9651 12.4927 34.3891 12.9139 33.6706C13.3351 32.9521 13.5457 32.1903 13.5457 31.3851C13.5457 30.4684 13.236 29.5704 12.6166 28.6908C11.7619 27.4769 10.2011 26.0152 7.93415 24.3057C5.65486 22.5838 4.2365 21.3389 3.67907 20.5709C2.71285 19.2826 2.22974 17.889 2.22974 16.3901C2.22974 15.2009 2.51465 14.117 3.08447 13.1384C3.65429 12.1598 4.45328 11.3918 5.48144 10.8344C6.52198 10.2645 7.64924 9.97962 8.86321 9.97962C10.1515 9.97962 11.3531 10.3017 12.468 10.9458C13.5952 11.5776 14.7844 12.7482 16.0355 14.4577L13.8058 16.1486C12.7776 14.7859 11.8981 13.8879 11.1673 13.4543C10.4488 13.0207 9.6622 12.804 8.80747 12.804C7.70498 12.804 6.8007 13.1384 6.09462 13.8073C5.40092 14.4763 5.05407 15.3 5.05407 16.2786C5.05407 16.8732 5.17795 17.4492 5.4257 18.0067C5.67345 18.5641 6.12559 19.1711 6.78212 19.8276C7.14136 20.1745 8.31816 21.085 10.3125 22.5591C12.6785 24.3057 14.3013 25.8603 15.1808 27.2229C16.0603 28.5855 16.5001 29.9544 16.5001 31.3294C16.5001 33.3114 15.7444 35.0332 14.2332 36.4949C12.7343 37.9566 10.9071 38.6875 8.75172 38.6875C7.09181 38.6875 5.58673 38.2477 4.2365 37.3682C2.88627 36.4763 1.64134 34.9899 0.501691 32.9088ZM41.9934 17.7837V38H39.4292V34.5253C38.3391 35.8508 37.1128 36.848 35.7501 37.5169C34.3999 38.1858 32.9196 38.5203 31.3092 38.5203C28.4477 38.5203 26.0012 37.4859 23.9697 35.4172C21.9505 33.3361 20.941 30.8091 20.941 27.8361C20.941 24.9251 21.9629 22.4352 24.0068 20.3665C26.0508 18.2978 28.5097 17.2634 31.3836 17.2634C33.0435 17.2634 34.5424 17.6165 35.8802 18.3226C37.2304 19.0286 38.4134 20.0878 39.4292 21.4999V17.7837H41.9934ZM31.588 19.7719C30.1386 19.7719 28.8008 20.1311 27.5744 20.8496C26.3481 21.5557 25.3695 22.5529 24.6386 23.8412C23.9201 25.1295 23.5609 26.4921 23.5609 27.929C23.5609 29.3536 23.9263 30.7162 24.6572 32.0169C25.388 33.3175 26.3667 34.3333 27.593 35.0642C28.8318 35.7826 30.1572 36.1419 31.5694 36.1419C32.9939 36.1419 34.3442 35.7826 35.6201 35.0642C36.896 34.3457 37.8746 33.3733 38.5559 32.1469C39.2496 30.9206 39.5964 29.5394 39.5964 28.0033C39.5964 25.6621 38.8222 23.7049 37.2738 22.1317C35.7377 20.5585 33.8425 19.7719 31.588 19.7719ZM47.4748 9.97962H50.0762V38H47.4748V9.97962ZM88.7993 19.9949L87.127 21.7229C85.7396 20.3727 84.3832 19.6976 83.0577 19.6976C82.2154 19.6976 81.4907 19.9763 80.8837 20.5337C80.2892 21.0912 79.9919 21.7415 79.9919 22.4847C79.9919 23.1413 80.2396 23.7668 80.7351 24.3614C81.2306 24.9684 82.2711 25.6807 83.8567 26.4983C85.7892 27.5016 87.1022 28.4679 87.7959 29.3969C88.4772 30.3384 88.8179 31.3975 88.8179 32.5743C88.8179 34.2342 88.2357 35.6402 87.0713 36.7922C85.9069 37.9443 84.4513 38.5203 82.7047 38.5203C81.5403 38.5203 80.4254 38.2663 79.3601 37.7584C78.3072 37.2506 77.4338 36.5507 76.7402 35.6588L78.3753 33.8007C79.7007 35.2995 81.1067 36.049 82.5932 36.049C83.6338 36.049 84.5195 35.7145 85.2503 35.0456C85.9812 34.3767 86.3466 33.5901 86.3466 32.6858C86.3466 31.9425 86.1051 31.2798 85.6219 30.6976C85.1388 30.1278 84.0487 29.4093 82.3517 28.5422C80.5307 27.6007 79.292 26.6717 78.6354 25.755C77.9789 24.8384 77.6506 23.7916 77.6506 22.6148C77.6506 21.0788 78.1709 19.8029 79.2114 18.7871C80.2644 17.7713 81.5898 17.2634 83.1878 17.2634C85.0459 17.2634 86.9164 18.1739 88.7993 19.9949Z" fill="#ffff"/>
<path d="M55.1489 17.7837H57.7688V27.2229C57.7688 29.527 57.8927 31.1126 58.1404 31.9797C58.512 33.2185 59.2181 34.1971 60.2587 34.9155C61.3116 35.634 62.5627 35.9932 64.0121 35.9932C65.4614 35.9932 66.6878 35.6464 67.6911 34.9527C68.7069 34.2466 69.4068 33.3237 69.7908 32.1841C70.0509 31.4037 70.181 29.75 70.181 27.2229V17.7837H72.8381V27.706C72.8381 30.4932 72.5098 32.5929 71.8533 34.0051C71.2092 35.4172 70.2306 36.5259 68.9175 37.3311C67.6168 38.1239 65.9817 38.5203 64.0121 38.5203C62.0425 38.5203 60.3949 38.1239 59.0695 37.3311C57.7564 36.5259 56.7716 35.411 56.1151 33.9865C55.4709 32.5495 55.1489 30.3941 55.1489 27.5202V17.7837Z" fill="#ffff"/>
<circle cx="68.15" cy="13.15" r="2.15" fill="#ffff"/>
<circle cx="60.15" cy="13.15" r="2.15" fill="#ffff"/>
</svg>
