<svg width="91" height="47" viewBox="0 0 91 47" fill="none" xmlns="http://www.w3.org/2000/svg" style="margin: 0; padding: 0;">
  <path d="M55.1489 17.7837H57.7688V27.2229C57.7688 29.527 57.8927 31.1126 58.1404 31.9797C58.5120 33.2185 59.2181 34.1971 60.2587 34.9155C61.3116 35.6340 62.5627 35.9932 64.0121 35.9932C65.4614 35.9932 66.6878 35.6464 67.6911 34.9527C68.7069 34.2466 69.4068 33.3237 69.7908 32.1841C70.0509 31.4037 70.1810 29.75 70.1810 27.2229V17.7837H72.8381V27.706C72.8381 30.4932 72.5098 32.5929 71.8533 34.0051C71.2092 35.4172 70.2306 36.5259 68.9175 37.3311C67.6168 38.1239 65.9817 38.5203 64.0121 38.5203C62.0425 38.5203 60.3949 38.1239 59.0695 37.3311C57.7564 36.5259 56.7716 35.411 56.1151 33.9865C55.4709 32.5495 55.1489 30.3941 55.1489 27.5202V17.7837Z" fill="#ffff"/>
  <circle cx="68.15" cy="13.15" r="2.15" fill="#ffff"/>
  <circle cx="60.15" cy="13.15" r="2.15" fill="#ffff"/>
</svg>
