<svg 
    xmlns="http://www.w3.org/2000/svg" 
    width="32" 
    height="32" 
    fill="none" 
    class="absolute" 
    style="transform-origin: center center;"
>
    <path 
        fill="#fff" 
        d="M15.709 13.075c1.323 0 2.082-.721 2.082-1.98 0-1.183-.816-1.979-2.03-1.979h-3.003V6.893c0-1.603-1.152-2.443-2.289-2.443-1.137 0-2.288.84-2.288 2.443v15.335c0 3.686 1.468 5.33 4.762 5.33 1.785 0 2.805-.46 3.564-.905.58-.323.786-1.007.786-1.539 0-.986-.66-2.085-1.606-2.085-.131 0-.263.022-.406.07-.05.02-.106.046-.167.074-.25.115-.59.271-1.089.271-.59 0-1.267-.208-1.267-1.834v-8.535h2.95Z"
    >
    </path>
    <path 
        fill="#FF22B1" 
        d="M19.941 23.551a4.02 4.02 0 0 0 4.015 4.015 4.02 4.02 0 0 0 4.014-4.015c0-2.213-1.8-4.014-4.014-4.014a4.019 4.019 0 0 0-4.015 4.014Z"
    >
    </path>
</svg>