<svg xmlns="http://www.w3.org/2000/svg" version="1.1" xmlns:xlink="http://www.w3.org/1999/xlink" xmlns:svgjs="http://svgjs.com/svgjs" width="512" height="512" x="0" y="0" viewBox="0 0 512 512" style="enable-background:new 0 0 512 512" xml:space="preserve" class=""><g><path fill="#8fa874" d="M206.296 73.96c18.819-16.327 52.322-7.219 47.861 14.786-4.462 22.005-24.396 14.562-24.396 14.562s-9.262 23.244-26.859 12.431c0 0-4.532 11.67-13.551 14.772a109.449 109.449 0 0 1 12.775 4.038c15.849 6.101 20.55 12.921 20.264 22.973 29.705-5.693 30.906 19.283 56.296 10.028 10.408-3.452 16.254-10.391 27.613-10.598 30.461-1.95 59.265 24.694 58.092 55.539 12.821-18.658 20.346-41.239 20.346-65.589 0-64.055-51.927-115.982-115.981-115.982-35.574 0-67.384 16.033-88.655 41.251 3.918 8.249 6.304 18.251 7.751 27.513 4.84-9.531 11.06-19.32 18.445-25.726z" data-original="#00b387" class=""></path><path fill="#8fa874" d="M259.184 167.902a152.812 152.812 0 0 1-9.712-5.917c-27.161-17.927-91.806 11.951-69.533 75.237h179.867c22.272-63.286-42.372-93.164-69.533-75.237-7.627 5.034-22.108 10.487-30.785 6.083z" data-original="#fb5657" class=""></path><path fill="#8fa874" d="M290.272 161.984a27.503 27.503 0 0 1 3.167-1.786c21.25-14.893 26.504-42.131 22.298-66.118 0 0-40.196 1.086-49.431 28.791-9.231 27.694 4.355 46.562 4.366 46.577 7.135-.899 14.751-4.265 19.599-7.464z" data-original="#93cf00" class=""></path><path fill="#8fa874" d="M222.389 157.523c.286-10.052-4.415-16.872-20.264-22.973-11.366-4.375-20.104-5.537-20.104-5.537s-8.592-1.967-20.771-1.844c-26.9.272-28.236 12.004-30.41 36.034-1.811 20.023-1.825 52.482-1.463 63.701.117 3.632.319 7.062.587 10.318h49.974c-16.388-46.566 14.281-75.042 42.451-79.698z" data-original="#ffa300" class=""></path><path fill="#8fa874" d="m397.372 463.758-8.573-7.415v-73.398c0-5.06-3.165-9.574-7.926-11.288-17.625-6.345-63.41-20.315-124.873-20.315s-107.249 13.97-124.873 20.315a11.989 11.989 0 0 0-7.925 11.288v73.398l-8.573 7.415a12.001 12.001 0 0 0-4.15 9.076v16.902c0 6.627 5.373 12 12 12h267.043c6.627 0 12-5.373 12-12v-16.902c0-3.484-1.514-6.797-4.15-9.076z" data-original="#00b387" class=""></path><path fill="#8fa874" d="M352.47 475.447c0-20.11-6.115-39.575-17.378-53.856-20.18-25.588-48.164-41.436-79.091-41.436s-58.912 15.848-79.092 41.437c-11.263 14.281-17.378 33.746-17.378 53.856s192.939 0 192.939 0z" data-original="#afeeff" class=""></path><path fill="#8fa874" d="M256 447.325c-15.532 0-28.122 12.591-28.122 28.122h56.245c0-15.532-12.591-28.122-28.122-28.122z" data-original="#fb5657" class=""></path><path fill="#8fa874" d="M256 330.442h77.36c33.429 0 60.529-27.1 60.529-60.529v-26.692a6 6 0 0 0-6-6H124.111a6 6 0 0 0-6 6v26.692c0 33.429 27.1 60.529 60.529 60.529z" data-original="#d8f68b" class=""></path><path fill="#8fa874" d="M206.296 73.96c-17.525 15.205-28.527 49.465-29.957 54.103 3.585.471 5.682.95 5.682.95s2.817.375 7.329 1.499c9.019-3.103 13.551-14.772 13.551-14.772 17.596 10.813 26.859-12.431 26.859-12.431s19.935 7.443 24.396-14.562-29.042-31.113-47.861-14.787z" data-original="#93cf00" class=""></path><path fill="#8fa874" d="M187.851 99.686c-1.756-11.243-4.89-23.583-10.478-32.546-13.181-21.141-47.881-22.295-50.093.049-2.211 22.344 19.031 21.096 19.031 21.096s2.012 24.941 22.012 19.784c0 0 .899 12.497 8.614 18.113 1.514-4.643 5.273-15.389 10.913-26.496z" data-original="#00b387" class=""></path><path d="M414.549 356.043a5.998 5.998 0 0 1-4.242-10.242l7.09-7.09a5.999 5.999 0 0 1 8.485 0 5.998 5.998 0 0 1 0 8.485l-7.09 7.09a5.986 5.986 0 0 1-4.243 1.757zM393.889 347.486a6 6 0 0 1-6-6v-10.027a6 6 0 0 1 12 0v10.027a6 6 0 0 1-6 6zM433.654 377.225h-10.026a6 6 0 0 1 0-12h10.026a6 6 0 0 1 0 12zM97.451 356.043a5.984 5.984 0 0 1-4.243-1.757l-7.09-7.09a6 6 0 0 1 8.485-8.485l7.09 7.09a6 6 0 0 1-4.242 10.242zM118.111 347.486a6 6 0 0 1-6-6v-10.027a6 6 0 0 1 12 0v10.027a6 6 0 0 1-6 6zM88.372 377.225H78.346a6 6 0 0 1 0-12h10.026a6 6 0 0 1 0 12z" fill="#ffffff" data-original="#000000" class=""></path><path fill="#8fa874" d="M227.877 330.442v21.349s.024.19.084.523a405.602 405.602 0 0 1 55.864-.016c.198-.325.298-.507.298-.507v-21.349h-56.245z" data-original="#845239" class=""></path><path d="m401.297 459.221-6.498-5.621v-70.655c0-7.568-4.78-14.373-11.894-16.933-13.965-5.027-47.343-15.443-92.783-19.241v-10.328h43.238c10.969 0 21.843-2.728 31.446-7.888a5.999 5.999 0 0 0 2.445-8.125 5.998 5.998 0 0 0-8.125-2.445c-7.864 4.225-16.773 6.458-25.767 6.458H178.64c-30.067 0-54.528-24.461-54.528-54.529v-26.692h263.777v26.692a54.53 54.53 0 0 1-2.658 16.87 6 6 0 1 0 11.413 3.709 66.472 66.472 0 0 0 3.246-20.579v-26.692c0-6.617-5.383-12-12-12h-19.984c1.573-6.089 2.354-11.745 2.525-16.989 13.279-20.007 20.307-43.236 20.307-67.33 0-64.309-50.024-117.148-113.203-121.663 5.217-6.04 15.866-9.151 15.996-9.186a6 6 0 0 0-3.146-11.58c-.958.26-21.217 5.944-26.442 20.553-31.416 1.224-60.965 14.503-82.76 37.024-10.248-14.459-28.474-19.273-41.017-16.343-10.76 2.513-17.809 10.322-18.854 20.89-.854 8.624 1.133 15.514 5.905 20.48 4.341 4.518 9.894 6.235 13.973 6.869 1.193 5.098 3.973 12.663 10.334 17.195 2.575 1.834 6.525 3.691 11.891 3.621a37.494 37.494 0 0 0 2.266 6.448c-1.438-.041-2.933-.058-4.489-.041-32.602.33-34.163 17.596-36.325 41.493-1.181 13.062-1.596 31.144-1.657 45.329a5.655 5.655 0 0 0 0 .319c-.032 8.156.052 14.995.175 18.787.045 1.391.114 2.773.185 4.152-6.363.288-11.455 5.54-11.455 11.972v26.692c0 36.684 29.845 66.529 66.528 66.529h43.237v10.328c-45.441 3.798-78.818 14.214-92.782 19.241-7.113 2.561-11.894 9.365-11.894 16.933V453.6l-6.498 5.62a17.986 17.986 0 0 0-6.225 13.615v16.902c0 9.925 8.075 18 18 18h267.04c9.925 0 18-8.075 18-18v-16.902c0-5.23-2.269-10.192-6.225-13.614zM184.309 231.223c-6.914-23.405-1.333-44.161 15.625-57.402 14.534-11.348 34.844-14.346 46.233-6.828a159.506 159.506 0 0 0 10.094 6.149c22.625 12.625 37.148 12.77 37.756 12.77 3.295 0 5.95-2.658 5.976-5.953s-2.634-5.995-5.929-6.047c-.066 0-3.695-.098-10.116-1.921 5.221-2.047 8.11-4.216 12.047-6.369 11.68-5.703 30.259-2.387 43.816 8.198 16.958 13.241 22.539 33.997 15.625 57.402H184.309zm19.972-102.271c-.665-.256-1.321-.501-1.968-.736a38.1 38.1 0 0 0 3.313-4.632c5.127 1.631 9.427 1.034 12.43.038 7.413-2.459 12.295-8.872 14.936-13.392 4.086.595 9.898.588 15.376-2.454 6.021-3.342 9.948-9.343 11.669-17.835 2.11-10.407-2.327-19.945-11.871-25.513-6.697-3.906-16.188-5.734-25.746-4.22v-13.05c14.871-6.922 31.416-10.527 48.219-10.21-.003.072-.011.143-.011.216v67.915c-4.29 4.186-7.846 9.398-10.013 15.897-5.737 17.213-3.391 31.489-.227 40.704a150.174 150.174 0 0 1-7.611-4.703c-6.845-4.518-15.635-6.458-24.918-6.001-1.96-9.756-9.355-16.55-23.578-22.025zm-11.276-26.192c4.535-9.034 10.397-18.348 17.223-24.266 9.624-8.349 23.771-8.437 31.891-3.701 3.567 2.082 7.532 5.985 6.157 12.763-.985 4.865-2.896 8.127-5.679 9.698-4.58 2.585-10.716.443-10.738.435-3.041-1.134-6.441.373-7.665 3.381-1.032 2.539-4.832 9.495-9.942 11.17-2.45.802-5.137.277-8.208-1.611a6.007 6.007 0 0 0-5.039-.571 6.024 6.024 0 0 0-3.688 3.491c-.914 2.304-4.089 8.252-8.53 10.661a86.568 86.568 0 0 0-4.515-.913c1.871-5.224 4.839-12.801 8.733-20.538zm117.964 48.188c3.658-5.266 6.382-11.011 8.296-16.973a5.995 5.995 0 0 0 .652-2.159c3.723-12.972 3.813-26.769 1.756-38.623-.411-2.941-3.143-5.178-6.096-5.109-1.12.03-17.858.623-32.948 8.464V37.795c17.72 2.24 34.137 8.717 48.208 18.375v98.934c-6.554-2.54-13.343-3.946-19.867-4.156zm-24.001 6.031c-2.15 1.419-4.64 2.709-7.224 3.777a176.318 176.318 0 0 1 6.06-14.599l17.514-5.403c-3.333 5.67-7.696 10.513-13.009 14.305a32.622 32.622 0 0 0-3.341 1.92zM272 124.771c4.189-12.569 16.495-18.754 27.017-21.791-5.412 6.439-10.448 13.474-15.031 21.085a188.382 188.382 0 0 0-13.868 28.163c-1.48-7.019-1.801-16.408 1.882-27.457zm37.123 1.634-15.389 4.747c5.145-8.7 11.042-16.739 17.361-23.785.198 6.736-.479 13.13-1.972 19.038zm69.615 20.499c0 16.614-3.702 32.773-10.795 47.524-6.326-18.683-15.245-26.177-25.106-33.17V65.686c22.047 20.127 35.901 49.084 35.901 81.218zM210.419 53.69v10.354a39.021 39.021 0 0 0-8.055 5.385c-4.374 3.794-8.334 8.607-11.869 13.825-.999-3.604-2.125-6.936-3.369-9.997a110.258 110.258 0 0 1 23.292-19.567zm-51.912 47.696c-4.392-3.105-5.977-10.872-6.215-13.582-.26-3.219-3.083-5.664-6.291-5.509-.063 0-6.559.245-10.176-3.573-2.196-2.32-3.062-6-2.574-10.94.682-6.883 5.619-9.447 9.642-10.386 9.16-2.138 22.65 2.111 29.389 12.92 4.073 6.532 7.284 16.325 9.33 28.397a188.979 188.979 0 0 0-6.256 14.172c-.643-2.159-.959-4.133-1.048-5.245a6.001 6.001 0 0 0-7.482-5.379c-3.494.901-6.214.614-8.318-.875zm2.804 31.784c11.223-.123 19.3 1.677 19.371 1.693.797.186 8.229 1.064 19.288 5.288 11.32 4.358 14.951 8.521 16.021 12.666-8.221 2.127-16.355 6.012-23.442 11.545-9.85 7.69-30.492 28.986-20.71 66.86h-36.263c-.081-1.496-.361-11.808-.377-17.266 5.501-.225 14.108-.414 21.343.146a6 6 0 0 0 .927-11.964c-7.645-.593-16.406-.427-22.22-.198.163-14.042.613-28.816 1.839-41.189 7.267-.329 20.662-.678 28.343.708 3.183.6 6.397-1.558 6.971-4.838a6 6 0 0 0-4.838-6.971c-8.151-1.472-20.981-1.288-29.024-.975 2.113-11.725 6.566-15.342 22.77-15.506zm72.566 203.274h44.245v9.502c-7.126-.386-14.505-.602-22.122-.602s-14.997.217-22.123.602zm161.645 153.293c0 3.309-2.691 6-6 6H122.479c-3.309 0-6-2.691-6-6v-16.902c0-1.744.756-3.398 2.074-4.538l8.573-7.415a6 6 0 0 0 2.075-4.538v-73.398a6.008 6.008 0 0 1 3.958-5.642c16.671-6.001 62.012-19.96 122.841-19.96s106.169 13.959 122.841 19.96a6.008 6.008 0 0 1 3.958 5.642v73.398a6 6 0 0 0 2.075 4.538l8.572 7.415a5.997 5.997 0 0 1 2.075 4.539v16.902z" fill="#ffffff" data-original="#000000" class=""></path><path d="M256 374.156c-31.806 0-61.567 15.527-83.803 43.722-12.038 15.264-18.667 35.709-18.667 57.571a5.998 5.998 0 0 0 6 6h192.939a6 6 0 0 0 6-6c0-21.862-6.629-42.308-18.667-57.572-22.235-28.194-51.997-43.721-83.803-43.721zm0 79.17c10.119 0 18.666 6.832 21.288 16.123h-42.577c2.622-9.291 11.17-16.123 21.288-16.123zm33.583 16.123c-2.497-14.013-13.57-25.086-27.583-27.583v-22.05a6 6 0 0 0-12 0v22.05c-14.013 2.497-25.086 13.57-27.583 27.583h-56.689a89.48 89.48 0 0 1 3.256-18.776l9.324 1.499c3.198.538 6.366-1.683 6.876-4.972a6 6 0 0 0-4.972-6.876l-6.992-1.124c2.326-5.068 5.136-9.754 8.399-13.892 5.834-7.398 12.23-13.813 19.059-19.199l6.327 6.441a5.982 5.982 0 0 0 4.28 1.795 6.001 6.001 0 0 0 4.28-10.205l-4.898-4.986c12.225-7.433 25.533-11.795 39.333-12.777v8.296a6 6 0 0 0 12 0v-8.296c13.799.982 27.108 5.344 39.333 12.777l-4.898 4.986a6.001 6.001 0 0 0 8.56 8.41l6.327-6.441c6.828 5.385 13.225 11.801 19.059 19.198 3.263 4.138 6.073 8.825 8.399 13.893l-6.992 1.124a6 6 0 0 0-4.972 6.876c.51 3.288 3.678 5.51 6.876 4.972l9.324-1.499a89.545 89.545 0 0 1 3.256 18.776zM425.881 347.197a5.998 5.998 0 0 0 0-8.485 5.999 5.999 0 0 0-8.484 0l-7.09 7.09a5.998 5.998 0 0 0 4.242 10.242 5.982 5.982 0 0 0 4.242-1.757zM387.889 331.46v10.027a6 6 0 0 0 12 0V331.46a6 6 0 0 0-12 0zM433.654 365.226h-10.026a6 6 0 0 0 0 12h10.026a6 6 0 0 0 0-12zM94.604 338.712a5.999 5.999 0 0 0-8.484 0 5.998 5.998 0 0 0 0 8.485l7.09 7.09c1.171 1.171 2.707 1.757 4.242 1.757s3.071-.586 4.242-1.757a5.998 5.998 0 0 0 0-8.485zM118.111 347.487a6 6 0 0 0 6-6V331.46a6 6 0 0 0-12 0v10.027a6 6 0 0 0 6 6zM88.372 365.226H78.346a6 6 0 0 0 0 12h10.026a6 6 0 0 0 0-12z" fill="#ffffff" data-original="#000000" class=""></path><circle cx="379.787" cy="308.748" r="6" fill="#ffffff" data-original="#000000" class=""></circle></g></svg>