<svg xmlns="http://www.w3.org/2000/svg" version="1.1" xmlns:xlink="http://www.w3.org/1999/xlink" xmlns:svgjs="http://svgjs.com/svgjs" width="512" height="512" x="0" y="0" viewBox="0 0 512 512" style="enable-background:new 0 0 512 512" xml:space="preserve" class=""><g><path d="M155.78 367.85h42.86v42.89h-42.86zm0-52.49h42.86V272.5h-42.86zm0-95.36h42.86v-42.89h-42.86zm233.6-42.89H346.5V220h42.89v-42.89zm-95.35 0h-42.89V220h42.89zM60.4 315.36h42.89V272.5H60.4zm0 95.38h42.89v-42.89H60.4zm0-190.74h42.89v-42.89H60.4zm227.28 131.33H250.8c-4.45 0-8.5 1.81-11.42 4.76a16.025 16.025 0 0 0-4.76 11.42v43.57c0 4.45 1.81 8.5 4.76 11.42 2.92 2.92 6.97 4.73 11.42 4.73h21.97a117.21 117.21 0 0 0 7.43 27.72H49.99c-15.73 0-28.63-12.9-28.63-28.63V154.6H433.6v146.95a117.82 117.82 0 0 0-27.72-7.43v-21.97c0-4.48-1.81-8.5-4.73-11.45a16.123 16.123 0 0 0-11.42-4.73h-43.57c-4.45 0-8.5 1.81-11.42 4.73-2.95 2.95-4.76 6.97-4.76 11.45v36.88a118.581 118.581 0 0 0-42.3 42.3zm42.29-130.99c0 4.45 1.81 8.5 4.76 11.42 2.92 2.95 6.97 4.76 11.42 4.76h43.57c4.45 0 8.5-1.81 11.42-4.76 2.92-2.92 4.73-6.97 4.73-11.42v-43.57c0-4.45-1.81-8.5-4.73-11.42s-6.97-4.73-11.42-4.73h-43.57c-4.45 0-8.5 1.81-11.42 4.73a16.025 16.025 0 0 0-4.76 11.42zM119.81 367.51c0-4.45-1.81-8.5-4.76-11.42a16.025 16.025 0 0 0-11.42-4.76H60.05c-4.45 0-8.5 1.81-11.42 4.76a16.123 16.123 0 0 0-4.73 11.42v43.57c0 4.45 1.81 8.5 4.73 11.42s6.97 4.73 11.42 4.73h43.57c4.45 0 8.5-1.81 11.42-4.73 2.95-2.92 4.76-6.97 4.76-11.42v-43.57zm0-95.35c0-4.48-1.81-8.5-4.76-11.45a16.123 16.123 0 0 0-11.42-4.73H60.05c-4.45 0-8.5 1.81-11.42 4.73-2.92 2.95-4.73 6.97-4.73 11.45v43.54c0 4.48 1.81 8.5 4.73 11.45 2.92 2.92 6.97 4.73 11.42 4.73h43.57c4.45 0 8.5-1.81 11.42-4.73 2.95-2.95 4.76-6.97 4.76-11.45v-43.54zm0-95.39c0-4.45-1.81-8.5-4.76-11.42a16.123 16.123 0 0 0-11.42-4.73H60.05c-4.45 0-8.5 1.81-11.42 4.73s-4.73 6.97-4.73 11.42v43.57c0 4.45 1.81 8.5 4.73 11.42 2.92 2.95 6.97 4.76 11.42 4.76h43.57c4.45 0 8.5-1.81 11.42-4.76 2.95-2.92 4.76-6.97 4.76-11.42v-43.57zm95.36 190.74c0-4.45-1.81-8.5-4.73-11.42-2.95-2.95-6.97-4.76-11.45-4.76h-43.54c-4.48 0-8.5 1.81-11.45 4.76a16.123 16.123 0 0 0-4.73 11.42v43.57c0 4.45 1.81 8.5 4.73 11.42 2.95 2.92 6.97 4.73 11.45 4.73h43.54c4.48 0 8.5-1.81 11.45-4.73 2.92-2.92 4.73-6.97 4.73-11.42zm0-95.35c0-4.48-1.81-8.5-4.73-11.45-2.95-2.92-6.97-4.73-11.45-4.73h-43.54c-4.48 0-8.5 1.81-11.45 4.73-2.92 2.95-4.73 6.97-4.73 11.45v43.54c0 4.48 1.81 8.5 4.73 11.45 2.95 2.92 6.97 4.73 11.45 4.73h43.54c4.48 0 8.5-1.81 11.45-4.73 2.92-2.95 4.73-6.97 4.73-11.45zm0-95.39c0-4.45-1.81-8.5-4.73-11.42-2.95-2.92-6.97-4.73-11.45-4.73h-43.54c-4.48 0-8.5 1.81-11.45 4.73a16.123 16.123 0 0 0-4.73 11.42v43.57c0 4.45 1.81 8.5 4.73 11.42 2.95 2.95 6.97 4.76 11.45 4.76h43.54c4.48 0 8.5-1.81 11.45-4.76 2.92-2.92 4.73-6.97 4.73-11.42zm19.44 43.57c0 4.45 1.81 8.5 4.76 11.42 2.92 2.95 6.97 4.76 11.42 4.76h43.54c4.48 0 8.53-1.81 11.45-4.76 2.92-2.92 4.73-6.97 4.73-11.42v-43.57c0-4.45-1.81-8.5-4.73-11.42s-6.97-4.73-11.45-4.73H250.8c-4.45 0-8.5 1.81-11.42 4.73a16.025 16.025 0 0 0-4.76 11.42v43.57zm16.19 111.54h43.54c4.48 0 8.53-1.81 11.45-4.73 2.92-2.95 4.73-6.97 4.73-11.45v-43.54c0-4.48-1.81-8.5-4.73-11.45a16.141 16.141 0 0 0-11.45-4.73H250.8c-4.45 0-8.5 1.81-11.42 4.73-2.95 2.95-4.76 6.97-4.76 11.45v43.54c0 4.48 1.81 8.5 4.76 11.45 2.91 2.92 6.97 4.73 11.42 4.73zm20.8 78.86c0-15.14 2.86-29.59 8.08-42.89h-28.54v42.89zm-20.46-95.38h42.89V272.5h-42.89zm138.24-22.4V272.5H346.5v28.52c13.29-5.19 27.75-8.06 42.88-8.06zM433.6 72.88c0-14.77-12.98-26.84-28.86-26.84H344.6v27.95c0 19.05-15.53 34.58-34.58 34.58s-34.58-15.53-34.58-34.58V46.04h-95.9v27.95c0 19.05-15.53 34.58-34.58 34.58s-34.58-15.53-34.58-34.58V46.04H50.22c-15.87 0-28.86 12.08-28.86 26.84v65.2H433.6zM310.01 92.07c9.92 0 18.06-8.14 18.06-18.08V18.06c0-9.92-8.14-18.06-18.06-18.06-9.95 0-18.06 8.14-18.06 18.06v55.93c.01 9.95 8.11 18.08 18.06 18.08zm-165.06 0c9.95 0 18.08-8.14 18.08-18.08V18.06C163.04 8.14 154.9 0 144.95 0c-9.92 0-18.06 8.14-18.06 18.06v55.93c.01 9.95 8.14 18.08 18.06 18.08zm345.69 318.67c0 55.93-45.33 101.25-101.25 101.25-55.93 0-101.25-45.33-101.25-101.25 0-55.93 45.33-101.25 101.25-101.25s101.25 45.33 101.25 101.25zm-89.58 0 35.35-35.35c3.2-3.2 3.2-8.45 0-11.65-3.23-3.23-8.48-3.23-11.68 0l-35.35 35.32-35.32-35.32c-3.23-3.23-8.48-3.23-11.68 0-3.23 3.2-3.23 8.45 0 11.65l35.32 35.35-35.32 35.32c-3.23 3.23-3.23 8.48 0 11.68 3.2 3.23 8.45 3.23 11.68 0l35.32-35.32 35.35 35.32c3.2 3.23 8.45 3.23 11.68 0 3.2-3.2 3.2-8.45 0-11.68z" fill="#ffffff" data-original="#000000" class=""></path></g></svg>