<?xml version="1.0" encoding="UTF-8"?>
<svg id="Layer_2" data-name="Layer 2" xmlns="http://www.w3.org/2000/svg" viewBox="0 0 600.23 599.57">
  <g id="Layer_1-2" data-name="Layer 1">
    <g>
      <path d="M360.93,544.49c-30.34,17.52-60.28,34.62-89.99,52.1-6.57,3.87-11.94,3.84-18.54,.01-81.09-47.02-162.28-93.87-243.53-140.61C2.51,452.33,0,447.77,0,440.36,.2,346.5,.21,252.64,0,158.78c-.02-7.48,2.71-11.83,9.04-15.47C90.12,96.69,171.12,49.95,252.01,3.02c6.78-3.94,12.27-4.08,19.12-.1,81.07,47.04,162.26,93.9,243.51,140.63,6.18,3.55,8.68,7.91,8.66,15.04-.2,60.63-.06,121.26-.21,181.9-.01,5.06,1.25,7.88,6.04,10.46,46.19,24.91,70.55,64.27,71.1,116.28,.64,61.02-38.08,111.68-96.63,127.15-54.85,14.49-101.58-1.54-138.46-45.06-1.24-1.47-2.52-2.9-4.19-4.82Zm-109.63,27.46v-7.54c0-83.91-.06-167.83,.14-251.74,.01-5.32-1.84-7.98-6.21-10.5-72.79-41.96-145.5-84.06-218.24-126.11-1.78-1.03-3.65-1.89-5.91-3.05-.11,1.72-.23,2.76-.23,3.8,0,85.64,.03,171.28-.12,256.92,0,4.25,1.89,5.97,5.12,7.83,47.03,27.12,93.99,54.35,140.98,81.55,27.76,16.07,55.52,32.12,84.47,48.86Zm250.34-231.7V173.15c-1.66,.75-2.83,1.17-3.89,1.79-36.02,20.79-72.06,41.53-107.94,62.55-1.98,1.16-3.67,4.6-3.7,7-.26,26.97-.16,53.94-.18,80.91,0,2.8,.75,6.12-.47,8.28-1.85,3.26-4.69,7.01-7.94,8.09-2.61,.87-7.32-1.05-9.48-3.3-2.04-2.12-2.67-6.27-2.7-9.53-.21-23.52-.11-47.03-.13-70.55,0-2-.22-3.99-.37-6.73-30.58,17.84-60.37,35.14-89.97,52.75-1.72,1.03-2.73,4.6-2.74,6.98-.14,84.79-.12,169.58-.1,254.37,0,1.77,.27,3.55,.46,5.95,26.35-15.36,51.96-30.29,77.57-45.22-21.74-50.81-18.28-98.87,16.55-141.53,34.73-42.54,80.78-56.61,135.03-44.7Zm78.5,127.75c.1-61.07-49.93-111.13-111.22-111.29-61.07-.16-111.41,50-111.44,111.05-.03,61.33,49.55,111.26,110.87,111.64,61.23,.38,111.69-49.9,111.79-111.4Zm-88.42-313.16c-1.7-1.2-2.35-1.75-3.09-2.17-74.27-42.9-148.53-85.83-222.93-128.52-2.16-1.24-6.33-1.01-8.58,.27-30.34,17.26-60.51,34.83-90.72,52.34-1.05,.61-2.01,1.35-3.31,2.22,1.19,.91,1.99,1.61,2.87,2.2,68.91,45.88,137.85,91.73,206.67,137.74,3.46,2.31,5.71,1.44,8.68-.29,28.34-16.43,56.73-32.77,85.1-49.15,8.16-4.71,16.32-9.44,25.29-14.64Zm-135.72,78.39c-.98-.91-1.4-1.42-1.93-1.77-69.21-46.22-138.44-92.39-207.57-138.73-3.74-2.51-6.17-1.24-9.28,.56-33.18,19.26-66.4,38.45-99.6,57.67-1.79,1.03-3.48,2.24-5.79,3.74,2.37,1.5,4.08,2.68,5.88,3.72,31.16,18.01,62.33,36.01,93.5,54,41.62,24.03,83.23,48.09,124.95,71.95,2.39,1.37,6.53,2.41,8.54,1.28,30.4-17.15,60.58-34.69,91.3-52.43Z"/>
      <path d="M453.86,499.04c21.51-28.44,42.73-56.42,63.86-84.48,5.03-6.67,11.12-8.49,16.32-4.43,5.06,3.95,4.46,10.36-.59,16.94-22.97,29.92-45.73,60-68.57,90.02-1.17,1.54-2.27,3.16-3.59,4.58-5.17,5.54-11.19,5.88-16.14,.11-13.76-16.03-27.3-32.25-40.68-48.6-4.32-5.28-3.55-11.32,1.03-14.99,4.66-3.74,10.97-3.01,15.48,2.22,9.58,11.1,18.97,22.35,28.45,33.54,1.37,1.61,2.77,3.19,4.44,5.1Z"/>
    </g>
  </g>
</svg>