<?xml version="1.0" encoding="UTF-8"?>
<svg id="Layer_2" data-name="Layer 2" xmlns="http://www.w3.org/2000/svg" viewBox="0 0 600 600">
  <g id="Layer_1-2" data-name="Layer 1">
    <g id="calendar-date-heart-love-valentine">
      <path d="M213.5,50h-51v-12.5C162.5,16.88,145.62,0,125,0h-12.5c-20.62,0-37.5,16.88-37.5,37.5v12.5h-12.5C28,50,0,78,0,112.5v425c0,34.5,28,62.5,62.5,62.5h475c34.5,0,62.5-28,62.5-62.5V112.5c0-34.5-28-62.5-62.5-62.5h-12.5v-12.5c0-20.62-16.87-37.5-37.5-37.5h-12.5c-20.63,0-37.5,16.88-37.5,37.5v12.5h-51M100,37.5c0-6.88,5.63-12.5,12.5-12.5h12.5c6.87,0,12.5,5.62,12.5,12.5v50c0,6.88-5.63,12.5-12.5,12.5h-12.5c-6.87,0-12.5-5.62-12.5-12.5V37.5Zm362.5,0c0-6.88,5.63-12.5,12.5-12.5h12.5c6.87,0,12.5,5.62,12.5,12.5v50c0,6.88-5.63,12.5-12.5,12.5h-12.5c-6.87,0-12.5-5.62-12.5-12.5V37.5Zm-120.38,137.5h232.88v362.5c0,20.63-16.87,37.5-37.5,37.5H62.5c-20.62,0-37.5-16.87-37.5-37.5V175h232.87m-7.87,150v143.75c0,17.26-13.99,31.25-31.25,31.25s-31.25-13.99-31.25-31.25v-131.25h-18.69c-17.26,0-31.25-13.99-31.25-31.25s13.99-31.25,31.25-31.25h31.19c27.61,0,50,22.39,50,50Zm93.75-50c17.26,0,31.25,13.99,31.25,31.25v68.75h37.5v-68.75c0-17.26,13.99-31.25,31.25-31.25s31.25,13.99,31.25,31.25v162.5c0,17.26-13.99,31.25-31.25,31.25s-31.25-13.99-31.25-31.25v-31.25h-68.75c-17.26,0-31.25-13.99-31.25-31.25v-100c0-17.26,13.99-31.25,31.25-31.25Z"/>
    </g>
  </g>
</svg>