<svg xmlns="http://www.w3.org/2000/svg" version="1.1" xmlns:xlink="http://www.w3.org/1999/xlink" xmlns:svgjs="http://svgjs.com/svgjs" width="512" height="512" x="0" y="0" viewBox="0 0 512.086 512.086" style="enable-background:new 0 0 512 512" xml:space="preserve" class=""><g><path d="M329.19 133.617v-16.238a27.484 27.484 0 0 1-18.286-25.865c.197-15.066 12.363-27.232 27.429-27.429h46.107l1.152-2.203a51.296 51.296 0 0 0 6.491-36.105 33.38 33.38 0 0 0-17.655-21.349C354.15-6.214 334.109 2.6 320.815 27.916l-28.197 53.751v47.049c3.032-.4 6.085-.611 9.143-.631a72.56 72.56 0 0 1 27.429 5.532zm13.989-108.846a9.143 9.143 0 0 1 12.352-3.849l14.482 7.598c4.474 2.348 6.197 7.878 3.849 12.352s-7.878 6.197-12.352 3.849l-14.482-7.598a9.143 9.143 0 0 1-3.849-12.352zM333.131 156.264a53.947 53.947 0 0 0-31.369-9.893c-30.284.03-54.827 24.573-54.857 54.857a53.864 53.864 0 0 0 3.163 18.286h103.387a53.83 53.83 0 0 0 3.163-18.286 54.681 54.681 0 0 0-23.487-44.964zM438.904 219.514v-18.286h-64a72.543 72.543 0 0 1-2.395 18.286z" fill="#8fa874" data-original="#000000" class=""></path><path d="M329.19 91.514a9.143 9.143 0 0 0 9.143 9.143h27.429a9.143 9.143 0 0 1 0 18.286h-18.286v25.381c.859.686 1.774 1.326 2.606 2.048h88.823v-27.429h-18.286a9.143 9.143 0 0 1 0-18.286h27.429a9.509 9.509 0 0 0 9.143-9.143 9.143 9.143 0 0 0-9.143-9.143H338.333a9.509 9.509 0 0 0-9.143 9.143zM256.047 9.228a9.143 9.143 0 0 0-9.143-9.143h-54.857a9.143 9.143 0 0 0-9.143 9.143v9.143h73.143zM438.904 164.657h-73.92a73.128 73.128 0 0 1 7.561 18.286h66.359zM186.562 219.514a70.086 70.086 0 0 0 5.486-27.429c0-30.254-17.755-54.857-39.589-54.857a29.925 29.925 0 0 0-16.603 5.221 44.142 44.142 0 0 0-22.437-31.881 9.08 9.08 0 0 0-11.886 4.571 9.207 9.207 0 0 0 4.398 12.096 24.44 24.44 0 0 1 10.414 13.001 29.258 29.258 0 0 0-12.709-3.008c-21.833 0-39.589 24.603-39.589 54.857a70.09 70.09 0 0 0 5.531 27.429zM466.333 493.8V347.514H45.762V493.8c0 10.099 8.187 18.286 18.286 18.286h384c10.098 0 18.285-8.187 18.285-18.286zM259.54 36.657h-80.128l-9.143 18.286h98.414zM9.19 329.228h493.714a9.145 9.145 0 0 0 8.174-13.229l-36.571-73.143a9.144 9.144 0 0 0-8.174-5.056H45.762a9.143 9.143 0 0 0-8.183 5.056L1.007 315.999a9.141 9.141 0 0 0 8.183 13.229z" fill="#8fa874" data-original="#000000" class=""></path><path d="M210.333 192.085a89.772 89.772 0 0 1-4.37 27.429h25.051a72.44 72.44 0 0 1-2.395-18.286c.042-29.78 18.115-56.569 45.714-67.758V73.228H164.619v47.369c26.084 7.086 45.714 36.435 45.714 71.488z" fill="#8fa874" data-original="#000000" class=""></path></g></svg>