<?xml version="1.0" encoding="UTF-8"?>
<svg id="Layer_2" data-name="Layer 2" xmlns="http://www.w3.org/2000/svg" viewBox="0 0 599.76 599.9">
  <defs>
    <style>
      .cls-1 {
        fill: #fff;
      }
    </style>
  </defs>
  <g id="Layer_1-2" data-name="Layer 1">
    <g>
      <path class="cls-1" d="M329.11,57.86c0,3.03,0,5.42,0,7.81,0,88.95,0,177.91,0,266.86,0,2.22-.23,4.49,.18,6.64,.92,4.87,3.71,8.02,9,8.12,5.54,.1,8.54-3.01,9.57-8.18,.31-1.56,.16-3.22,.16-4.83,0-94.2,0-188.39,0-282.59,0-9.85-3.12-12.94-13.08-12.95-25.01-.02-50.01-.01-75.02-.01-50.22,0-100.44-.01-150.66,0-9.14,0-12.41,3.3-12.5,12.33-.01,1.01,0,2.02,0,3.03,0,140.59,0,281.18,.01,421.77,0,2.56,0,5.12,0,7.74h-19.34V19.34H367.84c0,2.82,0,5.21,0,7.59,0,102.06,0,204.13,.01,306.19,0,2.21-.23,4.51,.27,6.63,1.16,4.86,4.26,7.67,9.5,7.54,4.99-.12,7.81-2.99,8.85-7.57,.48-2.12,.27-4.41,.27-6.63,0-106.3,0-212.6,0-318.9,0-11.5-2.68-14.19-14.27-14.19C272.65,0,172.82,0,72.98,0c-12.45,0-14.95,2.46-14.95,14.73,0,153.5,0,307,0,460.5,0,2.76,0,5.52,0,8.92-15.76,0-30.83-.03-45.9,.01-7.64,.02-12.25,3.73-12.13,9.6,.12,5.69,4.6,9.29,11.85,9.29,95.19,.02,190.39,.02,285.58,0,7.23,0,11.73-3.63,11.81-9.32,.09-5.68-4.45-9.44-11.56-9.59-1.01-.02-2.02,0-3.03,0-57.28,0-114.56,0-171.83,0-2.31,0-4.61,0-6.67,0V57.86h212.97Zm173.46,542.02c28.42,0,56.85,.02,85.27-.01,8.07-.01,11.86-3.45,11.87-11.1,.06-50.81,.11-101.62-.18-152.42-.02-3.07-2.12-7.16-4.58-9.04-24.34-18.59-48.86-36.96-73.61-55-3.45-2.51-8.4-4.17-12.66-4.19-55.84-.27-111.68-.18-167.52-.18-8.92,0-12.05,3.06-12.05,11.81,0,49.4,.1,98.79-.11,148.19-.03,6.57,2.29,10.82,7.49,14.67,24.29,17.99,48.3,36.36,72.59,54.33,2.5,1.85,6.25,2.79,9.43,2.81,28.02,.21,56.04,.12,84.06,.12Zm-212.51-309.37c-3.28,0-6.25-.15-9.21,.03-5.74,.35-9.84,4.42-9.77,9.5,.06,5.11,4.15,9.1,9.96,9.3,6.04,.2,12.1,.21,18.14,0,6.11-.2,9.99-3.79,10.03-9.82,.15-25.6,.15-51.2-.01-76.8-.04-5.74-3.87-9.39-9.6-9.62-6.24-.25-12.5-.23-18.74,0-5.76,.21-9.84,4.37-9.78,9.46,.06,5.11,4.14,9.02,9.94,9.34,2.94,.16,5.89,.03,9.04,.03v58.59Z"/>
      <path d="M329.11,57.86H116.15V484.14c2.06,0,4.37,0,6.67,0,57.28,0,114.56,0,171.83,0,1.01,0,2.02-.01,3.03,0,7.11,.14,11.65,3.91,11.56,9.59-.09,5.68-4.58,9.31-11.81,9.32-95.19,.02-190.39,.02-285.58,0-7.24,0-11.72-3.6-11.85-9.29-.13-5.87,4.49-9.58,12.13-9.6,15.07-.04,30.14-.01,45.9-.01,0-3.39,0-6.15,0-8.92,0-153.5,0-307,0-460.5C58.04,2.46,60.53,0,72.98,0,172.82,0,272.65,0,372.48,0c11.58,0,14.27,2.69,14.27,14.19,0,106.3,0,212.6,0,318.9,0,2.21,.21,4.51-.27,6.63-1.04,4.58-3.86,7.45-8.85,7.57-5.24,.12-8.34-2.69-9.5-7.54-.5-2.11-.27-4.41-.27-6.63-.01-102.06-.01-204.13-.01-306.19,0-2.39,0-4.78,0-7.59H77.42V483.61h19.34c0-2.63,0-5.19,0-7.74,0-140.59,0-281.18-.01-421.77,0-1.01,0-2.02,0-3.03,.1-9.03,3.37-12.33,12.5-12.33,50.22-.02,100.44-.01,150.66,0,25.01,0,50.01-.01,75.02,.01,9.95,0,13.08,3.1,13.08,12.95,.01,94.2,.01,188.39,0,282.59,0,1.61,.15,3.27-.16,4.83-1.03,5.17-4.03,8.28-9.57,8.18-5.29-.09-8.07-3.25-9-8.12-.41-2.15-.18-4.42-.18-6.64,0-88.95,0-177.91,0-266.86,0-2.39,0-4.78,0-7.81Z"/>
      <path d="M502.58,599.88c-28.02,0-56.04,.09-84.06-.12-3.18-.02-6.93-.96-9.43-2.81-24.3-17.98-48.3-36.35-72.59-54.33-5.19-3.85-7.52-8.1-7.49-14.67,.21-49.4,.11-98.79,.11-148.19,0-8.75,3.13-11.81,12.05-11.81,55.84,0,111.68-.1,167.52,.18,4.26,.02,9.21,1.67,12.66,4.19,24.75,18.05,49.27,36.41,73.61,55,2.46,1.88,4.56,5.96,4.58,9.04,.28,50.81,.23,101.61,.18,152.42,0,7.65-3.79,11.09-11.87,11.1-28.42,.04-56.85,.01-85.27,.02Zm-76.85-19.31h154.78v-135.12h-67.89c0,2.71,0,4.91,0,7.11,0,13.51,.11,27.02-.08,40.53-.08,5.8-4.26,9.88-9.35,9.89-5.11,.01-9.06-4.05-9.43-9.85-.14-2.21-.04-4.43-.04-6.65,0-13.65,0-27.29,0-41.01h-67.98v135.09Zm-19.42-9.26c.14-2.52,.25-3.51,.25-4.51,0-40.71,.09-81.41-.17-122.12-.02-2.62-2.05-6.03-4.2-7.7-16.41-12.69-33.08-25.04-49.7-37.46-1.15-.86-2.52-1.41-4.04-2.25-.21,1.29-.38,1.88-.38,2.47-.02,41.31-.08,82.62,.14,123.93,.01,2.29,1.84,5.26,3.74,6.73,12.88,10.01,26.01,19.7,39.07,29.49,4.78,3.58,9.57,7.13,15.3,11.41Zm-37.19-184.43c-.13,.47-.26,.93-.39,1.4,16.26,12.19,32.51,24.4,48.84,36.5,1.17,.87,2.98,1.2,4.5,1.21,16.32,.08,32.65,.05,48.97,0,.65,0,1.3-.42,2.67-.89-16.9-12.67-33.15-24.87-49.45-37.01-.9-.67-2.2-1.15-3.32-1.16-17.27-.07-34.55-.05-51.82-.05Zm87.15-.01c-.15,.45-.3,.9-.46,1.35,11.88,8.92,24.26,17.28,35.5,26.95,9.75,8.38,19.96,12.32,32.88,11.08,10.19-.98,20.55-.17,30.83-.21,1.67,0,3.34-.25,6.38-.5-17.39-13.03-33.62-25.23-49.91-37.34-1.05-.78-2.58-1.26-3.89-1.27-17.12-.08-34.23-.06-51.35-.06Z"/>
      <path d="M290.07,290.51v-58.59c-3.14,0-6.1,.13-9.04-.03-5.8-.32-9.88-4.23-9.94-9.34-.06-5.09,4.02-9.25,9.78-9.46,6.24-.23,12.5-.25,18.74,0,5.73,.23,9.56,3.89,9.6,9.62,.16,25.6,.16,51.2,.01,76.8-.04,6.03-3.92,9.62-10.03,9.82-6.04,.2-12.1,.19-18.14,0-5.81-.19-9.9-4.19-9.96-9.3-.06-5.07,4.03-9.15,9.77-9.5,2.95-.18,5.93-.03,9.21-.03Z"/>
    </g>
  </g>
</svg>