<svg xmlns="http://www.w3.org/2000/svg" version="1.1" xmlns:xlink="http://www.w3.org/1999/xlink" xmlns:svgjs="http://svgjs.com/svgjs" width="512" height="512" x="0" y="0" viewBox="0 0 64 64" style="enable-background:new 0 0 512 512" xml:space="preserve" class=""><g><path d="M60 31a1 1 0 0 0-1 1 26.993 26.993 0 0 1-53.069 6.983l3.6 1.9a1 1 0 0 0 .934-1.77L5.05 36.255a1.056 1.056 0 0 0-1.515.436l-2.459 5.926a1 1 0 0 0 1.848.766l1.289-3.106A29 29 0 0 0 61 32a1 1 0 0 0-1-1ZM62.383 20.076a1 1 0 0 0-1.307.541l-1.289 3.106A29 29 0 0 0 3 32a1 1 0 0 0 2 0 26.993 26.993 0 0 1 53.069-6.983l-3.6-1.9a1 1 0 0 0-.934 1.77l5.419 2.861a1.035 1.035 0 0 0 1.513-.437l2.459-5.926a1 1 0 0 0-.543-1.309Z" fill="#8fa874" data-original="#000000" class=""></path><path d="M32 45a13 13 0 1 0-13-13 13.015 13.015 0 0 0 13 13Zm0-24a11 11 0 1 1-11 11 11.013 11.013 0 0 1 11-11Z" fill="#8fa874" data-original="#000000" class=""></path><path d="M39 33h1a1 1 0 0 0 0-2h-1a1 1 0 0 0 0 2ZM26 32a1 1 0 0 0-1-1h-1a1 1 0 0 0 0 2h1a1 1 0 0 0 1-1ZM32 41a1 1 0 0 0 1-1v-1a1 1 0 0 0-2 0v1a1 1 0 0 0 1 1ZM32.515 32.857l5-3a1 1 0 1 0-1.03-1.714L33 30.233V24a1 1 0 0 0-2 0v8a1 1 0 0 0 1.515.857Z" fill="#8fa874" data-original="#000000" class=""></path><path d="M10.8 28.02a1 1 0 0 0-.8.98v6a1 1 0 0 0 .8.98l3.83.766a17.547 17.547 0 0 0 1.733 4.175L14.2 44.176a1 1 0 0 0 .125 1.262l4.24 4.239a1 1 0 0 0 1.262.125l3.254-2.169a17.557 17.557 0 0 0 4.174 1.733l.767 3.83A1 1 0 0 0 29 54h6a1 1 0 0 0 .98-.8l.767-3.83a17.557 17.557 0 0 0 4.174-1.733l3.254 2.163a1 1 0 0 0 1.262-.125l4.24-4.239a1 1 0 0 0 .125-1.262l-2.169-3.255a17.547 17.547 0 0 0 1.733-4.175l3.83-.766A1 1 0 0 0 54 35v-6a1 1 0 0 0-.8-.98l-3.83-.766a17.547 17.547 0 0 0-1.733-4.175l2.163-3.255a1 1 0 0 0-.125-1.262l-4.24-4.239a1 1 0 0 0-1.262-.125l-3.254 2.169a17.557 17.557 0 0 0-4.174-1.733L35.98 10.8A1 1 0 0 0 35 10h-6a1 1 0 0 0-.98.8l-.767 3.83a17.557 17.557 0 0 0-4.174 1.733L19.825 14.2a1 1 0 0 0-1.262.125l-4.24 4.239a1 1 0 0 0-.125 1.262l2.178 3.268a17.612 17.612 0 0 0-1.726 4.159Zm8.593-11.7 3.1 2.065a1 1 0 0 0 1.084.016 15.606 15.606 0 0 1 4.755-1.973 1 1 0 0 0 .756-.779L29.82 12h4.36l.73 3.646a1 1 0 0 0 .756.779 15.606 15.606 0 0 1 4.755 1.975 1 1 0 0 0 1.084-.016l3.1-2.065 3.081 3.08-2.066 3.1a1 1 0 0 0-.016 1.084 15.612 15.612 0 0 1 1.973 4.756 1 1 0 0 0 .779.756L52 29.82v4.36l-3.646.729a1 1 0 0 0-.779.756 15.612 15.612 0 0 1-1.975 4.756 1 1 0 0 0 .016 1.084l2.066 3.1-3.082 3.078-3.1-2.065a1 1 0 0 0-1.084-.016 15.606 15.606 0 0 1-4.755 1.973 1 1 0 0 0-.756.779L34.18 52h-4.36l-.73-3.646a1 1 0 0 0-.756-.779 15.606 15.606 0 0 1-4.755-1.975 1 1 0 0 0-1.084.016l-3.1 2.065-3.079-3.081 2.066-3.1a1 1 0 0 0 .016-1.084 15.612 15.612 0 0 1-1.973-4.756 1 1 0 0 0-.779-.756L12 34.18v-4.36l3.646-.729a1.029 1.029 0 0 0 .779-.756 15.612 15.612 0 0 1 1.975-4.756 1.062 1.062 0 0 0-.016-1.084l-2.066-3.1Z" fill="#8fa874" data-original="#000000" class=""></path></g></svg>